<svg xmlns="http://www.w3.org/2000/svg" viewBox="0 0 21 20" fill="currentColor"><script xmlns=""/><path d="M9.59954 14.7539C9.27175 15.082 8.7403 15.082 8.41251 14.7539C8.08472 14.4257 8.08472 13.8936 8.41251 13.5654L12.5671 9.40577C12.8949 9.07759 13.4264 9.07759 13.7542 9.40577C14.0819 9.73396 14.0819 10.2661 13.7542 10.5942L9.59954 14.7539Z" fill="white"/><path d="M8.41264 6.4346C8.08485 6.10642 8.08485 5.57432 8.41264 5.24614C8.74043 4.91795 9.27188 4.91795 9.59967 5.24614L13.7542 9.40577C14.0819 9.73396 14.0819 10.2661 13.7542 10.5942C13.4264 10.9224 12.895 10.9224 12.5673 10.5942L8.41264 6.4346Z" fill="white"/><script xmlns=""/></svg>