<svg xmlns="http://www.w3.org/2000/svg" viewBox="0 0 24 25" fill="none"><path d="M4.33594 17.4873C4.59992 17.7681 4.90711 18.0129 5.25029 18.2115L10.0002 20.9535C11.238 21.6687 12.7619 21.6687 14.0002 20.9535L18.7502 18.2115C19.9879 17.4975 20.7499 16.1763 20.7499 14.7477V9.26368C20.7499 7.83448 19.9879 6.51388 18.7502 5.79988L14.0002 3.05788C12.7625 2.34268 11.2386 2.34268 10.0002 3.05788L5.25029 5.79868C4.90711 5.99728 4.59992 6.24208 4.33594 6.52288" stroke="#4D83FA" stroke-width="1.49989" stroke-linecap="round" stroke-linejoin="round"/><path d="M17.0583 11.6339L14.4964 10.5083L12.2777 8.83853C11.895 8.55053 11.4288 8.39453 10.95 8.39453H7.45578C5.61927 8.39453 4.33594 10.8713 4.33594 12.5555V13.3343C4.33594 13.8317 4.73912 14.2343 5.23589 14.2343H5.80166C5.80166 15.0077 6.45683 15.6179 7.23019 15.6179C8.00355 15.6179 8.61972 14.9993 8.62872 14.2343H12.9221C12.9311 14.9999 13.5533 15.6179 14.3206 15.6179C15.088 15.6179 15.7072 15.0071 15.7072 14.2337H16.5117C17.2611 14.2337 17.8688 13.6259 17.8688 12.8765C17.8688 12.3383 17.5503 11.8505 17.0577 11.6339H17.0583Z" stroke="#4D83FA" stroke-width="1.49989" stroke-linecap="round" stroke-linejoin="round"/></svg>