<svg width="24" height="24" viewBox="0 0 24 24" fill="none" xmlns="http://www.w3.org/2000/svg">
    <path d="M11.6028 4.70508C13.8476 4.70508 14.2412 6.19832 13.999 7.02874C13.7038 8.03866 12.4992 8.71446 11.2266 8.2906" stroke="#4D83FA" stroke-width="1.49996" stroke-linecap="round" stroke-linejoin="round"/>
    <path d="M11.6034 4.70508C11.3028 4.70508 10.9698 4.73644 10.6 4.80456C7.90222 5.30411 5.73534 7.22229 4.89843 9.7287C4.76868 9.70383 4.64974 9.64652 4.5135 9.64652C3.28949 9.64652 2.29688 10.6943 2.29688 11.9864C2.29688 13.2785 3.28949 14.3263 4.5135 14.3263C4.65514 14.3263 4.77949 14.2668 4.91357 14.2409C5.89104 17.1679 8.67534 19.2969 11.9992 19.2969C15.323 19.2969 18.1073 17.1679 19.0848 14.2409C19.2189 14.2679 19.3432 14.3263 19.4849 14.3263C20.7089 14.3263 21.7015 13.2785 21.7015 11.9864C21.7015 10.6943 20.7089 9.64652 19.4849 9.64652C19.3519 9.64652 19.2362 9.70275 19.1086 9.72654C18.6707 8.4117 17.8662 7.25798 16.8087 6.38755" stroke="#4D83FA" stroke-width="1.49996" stroke-linecap="round" stroke-linejoin="round"/>
    <path d="M14.4647 12.9168C14.9371 12.9168 15.3201 12.5332 15.3201 12.06C15.3201 11.5868 14.9371 11.2031 14.4647 11.2031C13.9923 11.2031 13.6094 11.5868 13.6094 12.06C13.6094 12.5332 13.9923 12.9168 14.4647 12.9168Z" fill="#4D83FA"/>
    <path d="M9.52917 12.9168C10.0016 12.9168 10.3845 12.5332 10.3845 12.06C10.3845 11.5868 10.0016 11.2031 9.52917 11.2031C9.05678 11.2031 8.67383 11.5868 8.67383 12.06C8.67383 12.5332 9.05678 12.9168 9.52917 12.9168Z" fill="#4D83FA"/>
    <path d="M9.75556 14.8286C9.62182 14.8286 9.50168 14.9091 9.44841 15.0304C9.39513 15.1528 9.4178 15.2945 9.50621 15.3931C9.74196 15.6549 10.0196 15.8804 10.3347 16.0606C11.3786 16.6568 12.6628 16.6477 13.6987 16.0368C14.0104 15.8532 14.2858 15.6231 14.517 15.3579C14.6043 15.2582 14.6258 15.1154 14.5703 14.9941C14.5148 14.8728 14.3935 14.7958 14.2597 14.7969L9.75556 14.8286Z" fill="#4D83FA"/>
</svg>