<svg width="24" height="24" viewBox="0 0 24 24" fill="none" xmlns="http://www.w3.org/2000/svg">
<path d="M10 20.9515C11.2377 21.6667 12.7617 21.6667 14 20.9515L18.75 18.2095C19.9877 17.4955 20.7497 16.1743 20.7497 14.7457V9.26173C20.7497 7.83253 19.9877 6.51193 18.75 5.79793L14 3.05593C12.7623 2.34073 11.2383 2.34073 10 3.05593" stroke="#4D83FA" stroke-width="1.49989" stroke-linecap="round" stroke-linejoin="round"/>
<path d="M3.51471 16.1736H8.29887C9.19942 16.1736 10.1174 17.142 12.4171 17.142C12.8952 17.142 13.5276 17.097 13.9626 16.8642C14.6597 16.491 15.4457 14.5362 15.4721 14.475C15.8333 13.6362 16.0721 12.756 16.0721 11.8644C16.0721 11.271 15.7055 10.725 15.0671 10.725H12.7248C12.6426 10.3578 12.675 9.91079 12.7662 9.40259C12.804 9.19379 12.858 8.96819 12.9198 8.72939C13.02 8.27339 13.0728 7.81079 13.014 7.40639C12.945 6.93539 12.7608 6.55919 12.5173 6.28379C12.0967 5.80859 11.3053 6.03119 11.1409 6.64439C10.5128 8.98079 9.6656 9.16379 8.75184 11.3166H3.27729" stroke="#4D83FA" stroke-width="1.49989" stroke-linecap="round" stroke-linejoin="round"/>
<path d="M3.51367 16.1738C3.83646 17.018 4.44182 17.7428 5.24998 18.209L9.99994 20.951" stroke="#4D83FA" stroke-width="1.49989" stroke-linecap="round" stroke-linejoin="round"/>
<path d="M9.99966 3.05469L5.2497 5.79669C4.01196 6.51069 3.25 7.83189 3.25 9.26049V11.3182" stroke="#4D83FA" stroke-width="1.49989" stroke-linecap="round" stroke-linejoin="round"/>
</svg>