<svg xmlns="http://www.w3.org/2000/svg" version="1.1" xmlns:xlink="http://www.w3.org/1999/xlink" x="0" y="0" viewBox="0 0 472 472.435" style="enable-background:new 0 0 512 512" xml:space="preserve" class=""><g><path d="M8.191 472.426h305.5a7.385 7.385 0 0 0 5.489-2.114 7.384 7.384 0 0 0 2.191-5.457V304.066c0-.039.156-.074.156-.109 0-.102.07-.203.067-.297-.012-.21.011-.418-.012-.625-.016-.101-.008-.195-.027-.293-.035-.219-.07-.437-.125-.652-.02-.078-.035-.156-.055-.235a8.772 8.772 0 0 0-.285-.835l-.008-.024v-.008l-.027-.062-25.356-61.317a8.246 8.246 0 0 0-7.394-5.183H254.37v-73.031c15-3.098 28.457-11.141 40.742-24.551l3.04 9.8a8.094 8.094 0 0 0 10.046 5.36l54.653-16.426c4.23-1.273 6.632-5.734 5.359-9.965L332.164 5.695A8 8 0 0 0 322.2.34l-54.644 16.426a8 8 0 0 0-5.356 9.964l1.645 5.473-11.309 11.664a24.633 24.633 0 0 1-16.812 7.68l-69.907 3.21a53.775 53.775 0 0 0-40.98 21.888L27.44 208.637a8.003 8.003 0 0 0 1.063 10.676 37.355 37.355 0 0 0 25.101 9.664 40.358 40.358 0 0 0 13.766-2.602v8.05H33.582a8.241 8.241 0 0 0-7.39 5.184L.835 300.801c-.012.02-.02.097-.027.125v.039c0 .008 0 .031-.008.039a8.268 8.268 0 0 0-.29.844l-.058.238a8.88 8.88 0 0 0-.14.656c-.016.098-.028.196-.043.29a6.712 6.712 0 0 0-.051.628c0 .102.074.2.074.3 0 .036.082.075.082.11v160.79a7.507 7.507 0 0 0 2.281 5.464 7.482 7.482 0 0 0 5.535 2.102zm297.18-16h-289v-144h289zm-222-241.305 49.57-43.953a46.108 46.108 0 0 0 35 3.36c.34-.102.672-.227.993-.376l26.476-12.023a54.124 54.124 0 0 1 23.5-1.461l5.7.941a99.703 99.703 0 0 0 13.761 1.239v103.578h-155zM319.145 17.965l31.44 104.59-39.312 11.82-31.449-104.59zm-273.81 193.37 92.376-125.19a37.839 37.839 0 0 1 28.84-15.399l69.906-3.219a40.5 40.5 0 0 0 27.621-12.586l5.04-5.199 20.679 68.785c-18.07 23.532-36.36 31.453-62.477 27.278l-5.886-.942a70.302 70.302 0 0 0-31.133 2.082c-.344.106-.676.23-1 .38l-26.473 12.015c-13.367 3.762-27.594-1.903-34.715-13.82l51.16-18.961a8.005 8.005 0 0 0 5.235-6.16 7.997 7.997 0 0 0-10.797-8.84l-59.07 21.898a7.999 7.999 0 0 0-4.88 9.8 46.43 46.43 0 0 0 10.15 17.97l-51.044 45.152c-.125.113-.25.226-.367.344a21.165 21.165 0 0 1-23.164 4.613zm-6.413 39.09h28.45v16h-9.157a8 8 0 0 0 0 16h205.457c4.418 0 8-3.577 8-8a8 8 0 0 0-8-8h-9.3v-16h28.593l18.746 46H20.176zm0 0" fill="white" opacity="1"  class=""/></g></svg>