<svg xmlns="http://www.w3.org/2000/svg" viewBox="0 0 24 24" fill="none"><g clip-path="url(#clip0_2017_28767)"><path d="M8.91458 22.3564L15.4212 22.3564C17.6301 22.3564 19.421 20.5654 19.421 18.3564L19.421 14.6594C17.1382 13.3564 14.6793 12.4364 12.1504 11.9404L11.2405 5.99142C11.0275 4.59742 8.97157 4.75442 8.97157 6.16442L8.97157 17.0564L5.78774 14.5724C5.39176 14.2624 4.86778 14.1664 4.38781 14.3164C3.90783 14.4664 3.53085 14.8424 3.38086 15.3234L8.91358 22.3574L8.91458 22.3564Z" stroke="#4D83FA" stroke-width="1.49996" stroke-linecap="round" stroke-linejoin="round"/><ellipse cx="15.2714" cy="1.25" rx="1.24994" ry="1.25" fill="#4D83FA"/><ellipse cx="19.6699" cy="5.67383" rx="1.24994" ry="1.25" fill="#4D83FA"/><ellipse cx="15.2714" cy="5.67383" rx="1.24994" ry="1.25" fill="#4D83FA"/><ellipse cx="4.6308" cy="5.67383" rx="1.24994" ry="1.25" fill="#4D83FA"/></g><defs><clipPath id="clip0_2017_28767"><rect width="24" height="23.9988" fill="white" transform="translate(0 24) rotate(-90)"/></clipPath></defs></svg>