<svg width="24" height="24" viewBox="0 0 24 24" fill="none" xmlns="http://www.w3.org/2000/svg">
<path d="M19.9189 4.18536C19.9189 3.67402 19.3146 3.40995 18.9387 3.7571C17.834 4.77582 16.5789 5.60167 15.2249 6.21093C13.4535 7.0081 11.514 7.43438 9.52795 7.43438H6.79423C5.02977 7.43438 3.59961 8.86454 3.59961 10.629C3.59961 12.3935 5.02977 13.8236 6.79423 13.8236H9.52795C11.5149 13.8236 13.4535 14.2489 15.2249 15.0471C16.5779 15.6563 17.834 16.4822 18.9387 17.5009C19.3146 17.848 19.9189 17.584 19.9189 17.0726V4.18536V4.18536Z" stroke="#4D83FA" stroke-width="1.5" stroke-miterlimit="10" stroke-linecap="round" stroke-linejoin="round"/>
<path d="M10.4339 16.4395V18.3157C10.4339 19.1346 9.7693 19.7992 8.95037 19.7992C8.13144 19.7992 7.4668 19.1346 7.4668 18.3157V16.4395" stroke="#4D83FA" stroke-width="1.5" stroke-miterlimit="10" stroke-linecap="round" stroke-linejoin="round"/>
</svg>