<svg viewBox="0 0 28 28" fill="currentColor" xmlns="http://www.w3.org/2000/svg"><path fill-rule="evenodd" clip-rule="evenodd" d="M7.28827 11.7073L4.54102 3.41895L25.7778 13.9994L4.54102 24.5811L7.28792 16.2929L13.6886 15.4871C14.438 15.3927 15.0001 14.7554 15.0001 14.0001C15.0001 13.2447 14.438 12.6074 13.6886 12.5131L7.28827 11.7073Z" fill="#0D4CD3"/><path d="M4.54102 3.41895L4.93121 2.63576C4.61489 2.47817 4.23481 2.52633 3.9678 2.75785C3.70079 2.98937 3.59926 3.35878 3.71045 3.69424L4.54102 3.41895ZM7.28827 11.7073L6.45771 11.9826C6.5638 12.3027 6.8444 12.5333 7.17898 12.5755L7.28827 11.7073ZM25.7778 13.9994L26.1681 14.7826C26.4651 14.6346 26.6529 14.3313 26.6528 13.9994C26.6528 13.6676 26.4651 13.3643 26.168 13.2163L25.7778 13.9994ZM4.54102 24.5811L3.71044 24.3058C3.59926 24.6413 3.7008 25.0107 3.96782 25.2422C4.23485 25.4737 4.61492 25.5219 4.93124 25.3643L4.54102 24.5811ZM7.28792 16.2929L7.17862 15.4247C6.84404 15.4669 6.56344 15.6975 6.45735 16.0176L7.28792 16.2929ZM13.6886 15.4871L13.5793 14.6189V14.6189L13.6886 15.4871ZM13.6886 12.5131L13.7979 11.6449H13.7979L13.6886 12.5131ZM3.71045 3.69424L6.45771 11.9826L8.11883 11.432L5.37158 3.14365L3.71045 3.69424ZM26.168 13.2163L4.93121 2.63576L4.15082 4.20213L25.3877 14.7826L26.168 13.2163ZM4.93124 25.3643L26.1681 14.7826L25.3876 13.2163L4.15079 23.7979L4.93124 25.3643ZM6.45735 16.0176L3.71044 24.3058L5.37159 24.8564L8.11849 16.5682L6.45735 16.0176ZM13.5793 14.6189L7.17862 15.4247L7.39721 17.161L13.7979 16.3552L13.5793 14.6189ZM14.1251 14.0001C14.1251 14.3144 13.8912 14.5797 13.5793 14.6189L13.7979 16.3552C14.9848 16.2058 15.8751 15.1964 15.8751 14.0001H14.1251ZM13.5793 13.3812C13.8912 13.4205 14.1251 13.6857 14.1251 14.0001H15.8751C15.8751 12.8037 14.9849 11.7944 13.7979 11.6449L13.5793 13.3812ZM7.17898 12.5755L13.5793 13.3812L13.7979 11.6449L7.39757 10.8392L7.17898 12.5755Z" fill="#0D4CD3"/></svg>