<svg width="28" height="28" viewBox="0 0 28 28" fill="none" xmlns="http://www.w3.org/2000/svg">
    <path d="M24.3884 12.8241C22.9638 14.1655 21.5665 15.4784 20.0997 16.6809C20.575 18.5249 20.9386 20.4112 21.301 22.326C21.4412 23.0383 21.1756 23.6389 20.7277 23.9603C20.2809 24.2953 19.6381 24.3512 18.9953 24.0025C17.2766 23.0668 15.6001 22.1311 13.9931 21.1111C12.4009 22.1311 10.7095 23.0668 9.00571 24.0025C8.3629 24.3512 7.72009 24.2953 7.27335 23.9603C6.81296 23.6389 6.56105 23.0383 6.70003 22.326C7.04874 20.4112 7.42599 18.5249 7.90127 16.6809C6.43447 15.4784 5.02352 14.1655 3.61257 12.8241C3.08145 12.3215 2.94246 11.6923 3.10999 11.1612C3.27751 10.6301 3.76645 10.2119 4.49364 10.1138C6.42206 9.86317 8.3356 9.62491 10.2218 9.51322C10.9205 7.73867 11.7308 6.00632 12.5685 4.24542C12.8899 3.57531 13.4346 3.25391 13.9931 3.25391C14.5527 3.25391 15.1111 3.57531 15.4177 4.24542C16.2553 6.00632 17.0656 7.73867 17.7643 9.51322C19.6642 9.62491 21.564 9.86193 23.5061 10.1138C24.2321 10.2119 24.7074 10.6313 24.8898 11.1612C25.0585 11.6923 24.9196 12.3215 24.3884 12.8241Z" stroke="white" stroke-width="1.5" stroke-miterlimit="10" stroke-linecap="round" stroke-linejoin="round"/>
</svg>