<svg xmlns="http://www.w3.org/2000/svg" viewBox="0 0 40 40" fill="none"><rect width="40" height="40" rx="12" fill="#86909C"/><path d="M26.5329 28.7486L29.83 12.1369C29.83 11.0308 28.3093 11.7014 28.3162 11.7014L9.81259 18.9599C9.81259 18.9599 8.93476 19.2572 9.00388 19.8102C9.073 20.3633 9.78494 20.619 9.78494 20.619L14.4368 22.1883L14.446 22.1927C14.4451 22.1898 14.4447 22.1883 14.4447 22.1883L25.6215 15.0888C25.6215 15.0888 26.2643 14.6947 26.2436 15.0888C26.2436 15.0888 26.3611 15.1579 26.0155 15.4828C25.6699 15.8077 17.2372 23.3842 17.2372 23.3842L17.2192 23.5359L24.8049 29.35C26.0698 29.9031 26.5329 28.7486 26.5329 28.7486Z" fill="white"/></svg>